# xmcd
#
# Track frame offsets:
#	150
#	2538
#	17351
#	33708
#	58311
#	105991
#	121656
#	131841
#	175374
#	196494
#	221144
#	240475
#	256981
#	271904
#
# Disc length: 3904 seconds
#
# Revision: 0
# Processed by: cddbd v1.5.2PL0 Copyright (c) Steve Scherf et al.
# Submitted via: audiograbber 1.82.02
#
DISCID=bf0f3e0e
DTITLE=The Charlie Daniels Band - Live From Iraq
DYEAR=2007
DGENRE=Country
TTITLE0=Notte Pericolosa 
TTITLE1=In America 
TTITLE2=South's Gonna Do It, The (Again) 
TTITLE3=The Legend Of Wooley Swamp
TTITLE4=Saddle Tramp 
TTITLE5=Simple Man 
TTITLE6=Iraq Blues 
TTITLE7=Floreeda Road 
TTITLE8=Long Haired Country Boy 
TTITLE9=Uneasy Rider 
TTITLE10=How Great Thou Art 
TTITLE11=Drinkin' My Baby Goodbye 
TTITLE12=Rocky Top 
TTITLE13=The Devil Went Down To Georgia
EXTD=Dream`Master
EXTT0=
EXTT1=
EXTT2=
EXTT3=
EXTT4=
EXTT5=
EXTT6=
EXTT7=
EXTT8=
EXTT9=
EXTT10=
EXTT11=
EXTT12=
EXTT13=
PLAYORDER=
